<svg width="191" height="26" viewBox="0 0 191 26" fill="none" xmlns="http://www.w3.org/2000/svg">
<path d="M41.672 13.936H44.624V20.632C43.76 21.32 42.752 21.848 41.6 22.216C40.448 22.584 39.264 22.768 38.048 22.768C36.336 22.768 34.792 22.4 33.416 21.664C32.04 20.912 30.96 19.88 30.176 18.568C29.392 17.256 29 15.776 29 14.128C29 12.48 29.392 11 30.176 9.688C30.96 8.376 32.04 7.352 33.416 6.616C34.808 5.864 36.368 5.488 38.096 5.488C39.504 5.488 40.784 5.72 41.936 6.184C43.088 6.648 44.056 7.328 44.84 8.224L42.872 10.144C41.592 8.864 40.048 8.224 38.24 8.224C37.056 8.224 36 8.472 35.072 8.968C34.16 9.464 33.44 10.16 32.912 11.056C32.4 11.952 32.144 12.976 32.144 14.128C32.144 15.248 32.4 16.256 32.912 17.152C33.44 18.048 34.16 18.752 35.072 19.264C36 19.776 37.048 20.032 38.216 20.032C39.528 20.032 40.68 19.744 41.672 19.168V13.936Z" fill="#1D4D57"/>
<path d="M51.3071 11.584C52.1711 10.24 53.6911 9.568 55.8671 9.568V12.424C55.6111 12.376 55.3791 12.352 55.1711 12.352C54.0031 12.352 53.0911 12.696 52.4351 13.384C51.7791 14.056 51.4511 15.032 51.4511 16.312V22.528H48.4511V9.712H51.3071V11.584Z" fill="#1D4D57"/>
<path d="M58.412 9.712H61.412V22.528H58.412V9.712ZM59.924 7.6C59.38 7.6 58.924 7.432 58.556 7.096C58.188 6.744 58.004 6.312 58.004 5.8C58.004 5.288 58.188 4.864 58.556 4.528C58.924 4.176 59.38 4 59.924 4C60.468 4 60.924 4.168 61.292 4.504C61.66 4.824 61.844 5.232 61.844 5.728C61.844 6.256 61.66 6.704 61.292 7.072C60.94 7.424 60.484 7.6 59.924 7.6Z" fill="#1D4D57"/>
<path d="M77.9015 4.72V22.528H75.0215V20.872C74.5255 21.48 73.9095 21.936 73.1735 22.24C72.4535 22.544 71.6535 22.696 70.7735 22.696C69.5415 22.696 68.4295 22.424 67.4375 21.88C66.4615 21.336 65.6935 20.568 65.1335 19.576C64.5735 18.568 64.2935 17.416 64.2935 16.12C64.2935 14.824 64.5735 13.68 65.1335 12.688C65.6935 11.696 66.4615 10.928 67.4375 10.384C68.4295 9.84 69.5415 9.568 70.7735 9.568C71.6215 9.568 72.3975 9.712 73.1015 10C73.8055 10.288 74.4055 10.72 74.9015 11.296V4.72H77.9015ZM71.1335 20.128C71.8535 20.128 72.5015 19.968 73.0775 19.648C73.6535 19.312 74.1095 18.84 74.4455 18.232C74.7815 17.624 74.9495 16.92 74.9495 16.12C74.9495 15.32 74.7815 14.616 74.4455 14.008C74.1095 13.4 73.6535 12.936 73.0775 12.616C72.5015 12.28 71.8535 12.112 71.1335 12.112C70.4135 12.112 69.7655 12.28 69.1895 12.616C68.6135 12.936 68.1575 13.4 67.8215 14.008C67.4855 14.616 67.3175 15.32 67.3175 16.12C67.3175 16.92 67.4855 17.624 67.8215 18.232C68.1575 18.84 68.6135 19.312 69.1895 19.648C69.7655 19.968 70.4135 20.128 71.1335 20.128Z" fill="#1D4D57"/>
<path d="M87.3221 22.768C86.0261 22.768 84.7701 22.584 83.5541 22.216C82.3541 21.848 81.4021 21.36 80.6981 20.752L81.7781 18.328C82.4661 18.872 83.3061 19.32 84.2981 19.672C85.3061 20.008 86.3141 20.176 87.3221 20.176C88.5701 20.176 89.4981 19.976 90.1061 19.576C90.7301 19.176 91.0421 18.648 91.0421 17.992C91.0421 17.512 90.8661 17.12 90.5141 16.816C90.1781 16.496 89.7461 16.248 89.2181 16.072C88.6901 15.896 87.9701 15.696 87.0581 15.472C85.7781 15.168 84.7381 14.864 83.9381 14.56C83.1541 14.256 82.4741 13.784 81.8981 13.144C81.3381 12.488 81.0581 11.608 81.0581 10.504C81.0581 9.576 81.3061 8.736 81.8021 7.984C82.3141 7.216 83.0741 6.608 84.0821 6.16C85.1061 5.712 86.3541 5.488 87.8261 5.488C88.8501 5.488 89.8581 5.616 90.8501 5.872C91.8421 6.128 92.6981 6.496 93.4181 6.976L92.4341 9.4C91.6981 8.968 90.9301 8.64 90.1301 8.416C89.3301 8.192 88.5541 8.08 87.8021 8.08C86.5701 8.08 85.6501 8.288 85.0421 8.704C84.4501 9.12 84.1541 9.672 84.1541 10.36C84.1541 10.84 84.3221 11.232 84.6581 11.536C85.0101 11.84 85.4501 12.08 85.9781 12.256C86.5061 12.432 87.2261 12.632 88.1381 12.856C89.3861 13.144 90.4101 13.448 91.2101 13.768C92.0101 14.072 92.6901 14.544 93.2501 15.184C93.8261 15.824 94.1141 16.688 94.1141 17.776C94.1141 18.704 93.8581 19.544 93.3461 20.296C92.8501 21.048 92.0901 21.648 91.0661 22.096C90.0421 22.544 88.7941 22.768 87.3221 22.768Z" fill="#1D4D57"/>
<path d="M102.8 22.696C101.472 22.696 100.28 22.416 99.2238 21.856C98.1678 21.296 97.3438 20.52 96.7518 19.528C96.1598 18.52 95.8638 17.384 95.8638 16.12C95.8638 14.856 96.1598 13.728 96.7518 12.736C97.3438 11.744 98.1598 10.968 99.1998 10.408C100.256 9.848 101.456 9.568 102.8 9.568C104.064 9.568 105.168 9.824 106.112 10.336C107.072 10.848 107.792 11.584 108.272 12.544L105.968 13.888C105.6 13.296 105.136 12.856 104.576 12.568C104.032 12.264 103.432 12.112 102.776 12.112C101.656 12.112 100.728 12.48 99.9918 13.216C99.2558 13.936 98.8878 14.904 98.8878 16.12C98.8878 17.336 99.2478 18.312 99.9678 19.048C100.704 19.768 101.64 20.128 102.776 20.128C103.432 20.128 104.032 19.984 104.576 19.696C105.136 19.392 105.6 18.944 105.968 18.352L108.272 19.696C107.776 20.656 107.048 21.4 106.088 21.928C105.144 22.44 104.048 22.696 102.8 22.696Z" fill="#1D4D57"/>
<path d="M118.02 9.568C119.636 9.568 120.932 10.04 121.908 10.984C122.884 11.928 123.372 13.328 123.372 15.184V22.528H120.372V15.568C120.372 14.448 120.108 13.608 119.58 13.048C119.052 12.472 118.3 12.184 117.324 12.184C116.22 12.184 115.348 12.52 114.708 13.192C114.068 13.848 113.748 14.8 113.748 16.048V22.528H110.748V4.72H113.748V11.2C114.244 10.672 114.852 10.272 115.572 10C116.308 9.712 117.124 9.568 118.02 9.568Z" fill="#1D4D57"/>
<path d="M133.055 22.696C131.759 22.696 130.591 22.416 129.551 21.856C128.511 21.296 127.695 20.52 127.103 19.528C126.527 18.52 126.239 17.384 126.239 16.12C126.239 14.856 126.527 13.728 127.103 12.736C127.695 11.744 128.511 10.968 129.551 10.408C130.591 9.848 131.759 9.568 133.055 9.568C134.367 9.568 135.543 9.848 136.583 10.408C137.623 10.968 138.431 11.744 139.007 12.736C139.599 13.728 139.895 14.856 139.895 16.12C139.895 17.384 139.599 18.52 139.007 19.528C138.431 20.52 137.623 21.296 136.583 21.856C135.543 22.416 134.367 22.696 133.055 22.696ZM133.055 20.128C134.159 20.128 135.071 19.76 135.791 19.024C136.511 18.288 136.871 17.32 136.871 16.12C136.871 14.92 136.511 13.952 135.791 13.216C135.071 12.48 134.159 12.112 133.055 12.112C131.951 12.112 131.039 12.48 130.319 13.216C129.615 13.952 129.263 14.92 129.263 16.12C129.263 17.32 129.615 18.288 130.319 19.024C131.039 19.76 131.951 20.128 133.055 20.128Z" fill="#1D4D57"/>
<path d="M148.524 22.696C147.228 22.696 146.06 22.416 145.02 21.856C143.98 21.296 143.164 20.52 142.572 19.528C141.996 18.52 141.708 17.384 141.708 16.12C141.708 14.856 141.996 13.728 142.572 12.736C143.164 11.744 143.98 10.968 145.02 10.408C146.06 9.848 147.228 9.568 148.524 9.568C149.836 9.568 151.012 9.848 152.052 10.408C153.092 10.968 153.9 11.744 154.476 12.736C155.068 13.728 155.364 14.856 155.364 16.12C155.364 17.384 155.068 18.52 154.476 19.528C153.9 20.52 153.092 21.296 152.052 21.856C151.012 22.416 149.836 22.696 148.524 22.696ZM148.524 20.128C149.628 20.128 150.54 19.76 151.26 19.024C151.98 18.288 152.34 17.32 152.34 16.12C152.34 14.92 151.98 13.952 151.26 13.216C150.54 12.48 149.628 12.112 148.524 12.112C147.42 12.112 146.508 12.48 145.788 13.216C145.084 13.952 144.732 14.92 144.732 16.12C144.732 17.32 145.084 18.288 145.788 19.024C146.508 19.76 147.42 20.128 148.524 20.128Z" fill="#1D4D57"/>
<path d="M158.232 4.72H161.232V22.528H158.232V4.72Z" fill="#1D4D57"/>
<path d="M166.13 22.696C165.586 22.696 165.122 22.512 164.738 22.144C164.354 21.76 164.162 21.28 164.162 20.704C164.162 20.112 164.346 19.632 164.714 19.264C165.098 18.896 165.57 18.712 166.13 18.712C166.69 18.712 167.154 18.896 167.522 19.264C167.906 19.632 168.098 20.112 168.098 20.704C168.098 21.28 167.906 21.76 167.522 22.144C167.138 22.512 166.674 22.696 166.13 22.696Z" fill="#1D4D57"/>
<path d="M171.029 9.712H174.029V22.528H171.029V9.712ZM172.541 7.6C171.997 7.6 171.541 7.432 171.173 7.096C170.805 6.744 170.621 6.312 170.621 5.8C170.621 5.288 170.805 4.864 171.173 4.528C171.541 4.176 171.997 4 172.541 4C173.085 4 173.541 4.168 173.909 4.504C174.277 4.824 174.461 5.232 174.461 5.728C174.461 6.256 174.277 6.704 173.909 7.072C173.557 7.424 173.101 7.6 172.541 7.6Z" fill="#1D4D57"/>
<path d="M183.727 22.696C182.431 22.696 181.263 22.416 180.223 21.856C179.183 21.296 178.367 20.52 177.775 19.528C177.199 18.52 176.911 17.384 176.911 16.12C176.911 14.856 177.199 13.728 177.775 12.736C178.367 11.744 179.183 10.968 180.223 10.408C181.263 9.848 182.431 9.568 183.727 9.568C185.039 9.568 186.215 9.848 187.255 10.408C188.295 10.968 189.103 11.744 189.679 12.736C190.271 13.728 190.567 14.856 190.567 16.12C190.567 17.384 190.271 18.52 189.679 19.528C189.103 20.52 188.295 21.296 187.255 21.856C186.215 22.416 185.039 22.696 183.727 22.696ZM183.727 20.128C184.831 20.128 185.743 19.76 186.463 19.024C187.183 18.288 187.543 17.32 187.543 16.12C187.543 14.92 187.183 13.952 186.463 13.216C185.743 12.48 184.831 12.112 183.727 12.112C182.623 12.112 181.711 12.48 180.991 13.216C180.287 13.952 179.935 14.92 179.935 16.12C179.935 17.32 180.287 18.288 180.991 19.024C181.711 19.76 182.623 20.128 183.727 20.128Z" fill="#1D4D57"/>
<path d="M13.0002 0C5.83179 0 0 5.83179 0 13C0 20.1684 5.83179 26.0002 13.0002 26.0002C20.1682 26.0002 26 20.1684 26 13C26 5.83179 20.1682 0 13.0002 0ZM13.0002 24.1393C6.85792 24.1393 1.86084 19.1422 1.86084 13C1.86084 6.85792 6.85792 1.86084 13.0002 1.86084C19.1421 1.86084 24.1392 6.85792 24.1392 13C24.1392 19.1422 19.1421 24.1393 13.0002 24.1393Z" fill="#1D4D57"/>
<path d="M7.69557 11.1162C7.11194 11.1162 6.61462 11.3232 6.20362 11.7371C5.79263 12.1511 5.58728 12.656 5.58728 13.2515C5.58728 13.8651 5.78506 14.37 6.18151 14.7661C6.57737 15.162 7.08225 15.36 7.69557 15.36C8.28556 15.36 8.78893 15.1562 9.20569 14.7482C9.62244 14.3403 9.83142 13.8445 9.83142 13.2605C9.83142 12.6769 9.62123 12.1735 9.20145 11.7504C8.78106 11.3278 8.2795 11.1162 7.69557 11.1162Z" fill="#1D4D57"/>
<path d="M13.1564 11.1162C12.5725 11.1162 12.0755 11.3232 11.6642 11.7371C11.2535 12.1511 11.0479 12.656 11.0479 13.2515C11.0479 13.8651 11.2459 14.37 11.6421 14.7661C12.0379 15.162 12.5428 15.36 13.1564 15.36C13.7461 15.36 14.2495 15.1562 14.6663 14.7482C15.0833 14.3403 15.292 13.8445 15.292 13.2605C15.292 12.6769 15.0818 12.1735 14.662 11.7504C14.2419 11.3278 13.7401 11.1162 13.1564 11.1162Z" fill="#1D4D57"/>
<path d="M20.4883 11.7504C20.0682 11.3278 19.5664 11.1162 18.9827 11.1162C18.3988 11.1162 17.9018 11.3232 17.4905 11.7371C17.0798 12.1511 16.8741 12.656 16.8741 13.2515C16.8741 13.8651 17.0722 14.37 17.4684 14.7661C17.8642 15.162 18.3691 15.36 18.9827 15.36C19.5724 15.36 20.0758 15.1562 20.4926 14.7482C20.9096 14.3403 21.1183 13.8445 21.1183 13.2605C21.1183 12.6769 20.9081 12.1735 20.4883 11.7504Z" fill="#1D4D57"/>
</svg>
