<svg width="163" height="26" viewBox="0 0 163 26" fill="none" xmlns="http://www.w3.org/2000/svg">
<path d="M42.672 13.936H45.624V20.632C44.76 21.32 43.752 21.848 42.6 22.216C41.448 22.584 40.264 22.768 39.048 22.768C37.336 22.768 35.792 22.4 34.416 21.664C33.04 20.912 31.96 19.88 31.176 18.568C30.392 17.256 30 15.776 30 14.128C30 12.48 30.392 11 31.176 9.68801C31.96 8.37601 33.04 7.35201 34.416 6.61601C35.808 5.86401 37.368 5.48801 39.096 5.48801C40.504 5.48801 41.784 5.72001 42.936 6.18401C44.088 6.64801 45.056 7.32801 45.84 8.22401L43.872 10.144C42.592 8.86401 41.048 8.22401 39.24 8.22401C38.056 8.22401 37 8.47201 36.072 8.96801C35.16 9.46401 34.44 10.16 33.912 11.056C33.4 11.952 33.144 12.976 33.144 14.128C33.144 15.248 33.4 16.256 33.912 17.152C34.44 18.048 35.16 18.752 36.072 19.264C37 19.776 38.048 20.032 39.216 20.032C40.528 20.032 41.68 19.744 42.672 19.168V13.936Z" fill="#1D4D57"/>
<path d="M52.3071 11.584C53.1711 10.24 54.6911 9.56799 56.8671 9.56799V12.424C56.6111 12.376 56.3791 12.352 56.1711 12.352C55.0031 12.352 54.0911 12.696 53.4351 13.384C52.7791 14.056 52.4511 15.032 52.4511 16.312V22.528H49.4511V9.71199H52.3071V11.584Z" fill="#1D4D57"/>
<path d="M59.412 9.712H62.412V22.528H59.412V9.712ZM60.924 7.6C60.38 7.6 59.924 7.432 59.556 7.096C59.188 6.744 59.004 6.312 59.004 5.8C59.004 5.288 59.188 4.864 59.556 4.528C59.924 4.176 60.38 4 60.924 4C61.468 4 61.924 4.168 62.292 4.504C62.66 4.824 62.844 5.232 62.844 5.728C62.844 6.256 62.66 6.704 62.292 7.072C61.94 7.424 61.484 7.6 60.924 7.6Z" fill="#1D4D57"/>
<path d="M78.9015 4.72V22.528H76.0215V20.872C75.5255 21.48 74.9095 21.936 74.1735 22.24C73.4535 22.544 72.6535 22.696 71.7735 22.696C70.5415 22.696 69.4295 22.424 68.4375 21.88C67.4615 21.336 66.6935 20.568 66.1335 19.576C65.5735 18.568 65.2935 17.416 65.2935 16.12C65.2935 14.824 65.5735 13.68 66.1335 12.688C66.6935 11.696 67.4615 10.928 68.4375 10.384C69.4295 9.84 70.5415 9.568 71.7735 9.568C72.6215 9.568 73.3975 9.712 74.1015 10C74.8055 10.288 75.4055 10.72 75.9015 11.296V4.72H78.9015ZM72.1335 20.128C72.8535 20.128 73.5015 19.968 74.0775 19.648C74.6535 19.312 75.1095 18.84 75.4455 18.232C75.7815 17.624 75.9495 16.92 75.9495 16.12C75.9495 15.32 75.7815 14.616 75.4455 14.008C75.1095 13.4 74.6535 12.936 74.0775 12.616C73.5015 12.28 72.8535 12.112 72.1335 12.112C71.4135 12.112 70.7655 12.28 70.1895 12.616C69.6135 12.936 69.1575 13.4 68.8215 14.008C68.4855 14.616 68.3175 15.32 68.3175 16.12C68.3175 16.92 68.4855 17.624 68.8215 18.232C69.1575 18.84 69.6135 19.312 70.1895 19.648C70.7655 19.968 71.4135 20.128 72.1335 20.128Z" fill="#1D4D57"/>
<path d="M88.3221 22.768C87.0261 22.768 85.7701 22.584 84.5541 22.216C83.3541 21.848 82.4021 21.36 81.6981 20.752L82.7781 18.328C83.4661 18.872 84.3061 19.32 85.2981 19.672C86.3061 20.008 87.3141 20.176 88.3221 20.176C89.5701 20.176 90.4981 19.976 91.1061 19.576C91.7301 19.176 92.0421 18.648 92.0421 17.992C92.0421 17.512 91.8661 17.12 91.5141 16.816C91.1781 16.496 90.7461 16.248 90.2181 16.072C89.6901 15.896 88.9701 15.696 88.0581 15.472C86.7781 15.168 85.7381 14.864 84.9381 14.56C84.1541 14.256 83.4741 13.784 82.8981 13.144C82.3381 12.488 82.0581 11.608 82.0581 10.504C82.0581 9.57601 82.3061 8.73601 82.8021 7.98401C83.3141 7.21601 84.0741 6.60801 85.0821 6.16001C86.1061 5.71201 87.3541 5.48801 88.8261 5.48801C89.8501 5.48801 90.8581 5.61601 91.8501 5.87201C92.8421 6.12801 93.6981 6.49601 94.4181 6.97601L93.4341 9.40001C92.6981 8.96801 91.9301 8.64001 91.1301 8.41601C90.3301 8.19201 89.5541 8.08001 88.8021 8.08001C87.5701 8.08001 86.6501 8.28801 86.0421 8.70401C85.4501 9.12001 85.1541 9.67201 85.1541 10.36C85.1541 10.84 85.3221 11.232 85.6581 11.536C86.0101 11.84 86.4501 12.08 86.9781 12.256C87.5061 12.432 88.2261 12.632 89.1381 12.856C90.3861 13.144 91.4101 13.448 92.2101 13.768C93.0101 14.072 93.6901 14.544 94.2501 15.184C94.8261 15.824 95.1141 16.688 95.1141 17.776C95.1141 18.704 94.8581 19.544 94.3461 20.296C93.8501 21.048 93.0901 21.648 92.0661 22.096C91.0421 22.544 89.7941 22.768 88.3221 22.768Z" fill="#1D4D57"/>
<path d="M103.8 22.696C102.472 22.696 101.28 22.416 100.224 21.856C99.1678 21.296 98.3438 20.52 97.7518 19.528C97.1598 18.52 96.8638 17.384 96.8638 16.12C96.8638 14.856 97.1598 13.728 97.7518 12.736C98.3438 11.744 99.1598 10.968 100.2 10.408C101.256 9.84799 102.456 9.56799 103.8 9.56799C105.064 9.56799 106.168 9.82399 107.112 10.336C108.072 10.848 108.792 11.584 109.272 12.544L106.968 13.888C106.6 13.296 106.136 12.856 105.576 12.568C105.032 12.264 104.432 12.112 103.776 12.112C102.656 12.112 101.728 12.48 100.992 13.216C100.256 13.936 99.8878 14.904 99.8878 16.12C99.8878 17.336 100.248 18.312 100.968 19.048C101.704 19.768 102.64 20.128 103.776 20.128C104.432 20.128 105.032 19.984 105.576 19.696C106.136 19.392 106.6 18.944 106.968 18.352L109.272 19.696C108.776 20.656 108.048 21.4 107.088 21.928C106.144 22.44 105.048 22.696 103.8 22.696Z" fill="#1D4D57"/>
<path d="M119.02 9.568C120.636 9.568 121.932 10.04 122.908 10.984C123.884 11.928 124.372 13.328 124.372 15.184V22.528H121.372V15.568C121.372 14.448 121.108 13.608 120.58 13.048C120.052 12.472 119.3 12.184 118.324 12.184C117.22 12.184 116.348 12.52 115.708 13.192C115.068 13.848 114.748 14.8 114.748 16.048V22.528H111.748V4.72H114.748V11.2C115.244 10.672 115.852 10.272 116.572 10C117.308 9.712 118.124 9.568 119.02 9.568Z" fill="#1D4D57"/>
<path d="M134.055 22.696C132.759 22.696 131.591 22.416 130.551 21.856C129.511 21.296 128.695 20.52 128.103 19.528C127.527 18.52 127.239 17.384 127.239 16.12C127.239 14.856 127.527 13.728 128.103 12.736C128.695 11.744 129.511 10.968 130.551 10.408C131.591 9.84799 132.759 9.56799 134.055 9.56799C135.367 9.56799 136.543 9.84799 137.583 10.408C138.623 10.968 139.431 11.744 140.007 12.736C140.599 13.728 140.895 14.856 140.895 16.12C140.895 17.384 140.599 18.52 140.007 19.528C139.431 20.52 138.623 21.296 137.583 21.856C136.543 22.416 135.367 22.696 134.055 22.696ZM134.055 20.128C135.159 20.128 136.071 19.76 136.791 19.024C137.511 18.288 137.871 17.32 137.871 16.12C137.871 14.92 137.511 13.952 136.791 13.216C136.071 12.48 135.159 12.112 134.055 12.112C132.951 12.112 132.039 12.48 131.319 13.216C130.615 13.952 130.263 14.92 130.263 16.12C130.263 17.32 130.615 18.288 131.319 19.024C132.039 19.76 132.951 20.128 134.055 20.128Z" fill="#1D4D57"/>
<path d="M149.524 22.696C148.228 22.696 147.06 22.416 146.02 21.856C144.98 21.296 144.164 20.52 143.572 19.528C142.996 18.52 142.708 17.384 142.708 16.12C142.708 14.856 142.996 13.728 143.572 12.736C144.164 11.744 144.98 10.968 146.02 10.408C147.06 9.84799 148.228 9.56799 149.524 9.56799C150.836 9.56799 152.012 9.84799 153.052 10.408C154.092 10.968 154.9 11.744 155.476 12.736C156.068 13.728 156.364 14.856 156.364 16.12C156.364 17.384 156.068 18.52 155.476 19.528C154.9 20.52 154.092 21.296 153.052 21.856C152.012 22.416 150.836 22.696 149.524 22.696ZM149.524 20.128C150.628 20.128 151.54 19.76 152.26 19.024C152.98 18.288 153.34 17.32 153.34 16.12C153.34 14.92 152.98 13.952 152.26 13.216C151.54 12.48 150.628 12.112 149.524 12.112C148.42 12.112 147.508 12.48 146.788 13.216C146.084 13.952 145.732 14.92 145.732 16.12C145.732 17.32 146.084 18.288 146.788 19.024C147.508 19.76 148.42 20.128 149.524 20.128Z" fill="#1D4D57"/>
<path d="M159.232 4.72H162.232V22.528H159.232V4.72Z" fill="#1D4D57"/>
<path d="M13.0002 0C5.83179 0 0 5.83179 0 13C0 20.1684 5.83179 26.0002 13.0002 26.0002C20.1682 26.0002 26 20.1684 26 13C26 5.83179 20.1682 0 13.0002 0ZM13.0002 24.1393C6.85792 24.1393 1.86084 19.1422 1.86084 13C1.86084 6.85792 6.85792 1.86084 13.0002 1.86084C19.1421 1.86084 24.1392 6.85792 24.1392 13C24.1392 19.1422 19.1421 24.1393 13.0002 24.1393Z" fill="#1D4D57"/>
<path d="M7.69557 11.1162C7.11194 11.1162 6.61462 11.3232 6.20362 11.7371C5.79263 12.1511 5.58728 12.656 5.58728 13.2515C5.58728 13.8651 5.78506 14.37 6.18151 14.7661C6.57737 15.162 7.08225 15.36 7.69557 15.36C8.28556 15.36 8.78893 15.1562 9.20569 14.7482C9.62244 14.3403 9.83142 13.8445 9.83142 13.2605C9.83142 12.6769 9.62123 12.1735 9.20145 11.7504C8.78106 11.3278 8.2795 11.1162 7.69557 11.1162Z" fill="#1D4D57"/>
<path d="M13.1564 11.1162C12.5725 11.1162 12.0755 11.3232 11.6642 11.7371C11.2535 12.1511 11.0479 12.656 11.0479 13.2515C11.0479 13.8651 11.2459 14.37 11.6421 14.7661C12.0379 15.162 12.5428 15.36 13.1564 15.36C13.7461 15.36 14.2495 15.1562 14.6663 14.7482C15.0833 14.3403 15.292 13.8445 15.292 13.2605C15.292 12.6769 15.0818 12.1735 14.662 11.7504C14.2419 11.3278 13.7401 11.1162 13.1564 11.1162Z" fill="#1D4D57"/>
<path d="M20.4883 11.7504C20.0682 11.3278 19.5664 11.1162 18.9827 11.1162C18.3988 11.1162 17.9018 11.3232 17.4905 11.7371C17.0798 12.1511 16.8741 12.656 16.8741 13.2515C16.8741 13.8651 17.0722 14.37 17.4684 14.7661C17.8642 15.162 18.3691 15.36 18.9827 15.36C19.5724 15.36 20.0758 15.1562 20.4926 14.7482C20.9096 14.3403 21.1183 13.8445 21.1183 13.2605C21.1183 12.6769 20.9081 12.1735 20.4883 11.7504Z" fill="#1D4D57"/>
</svg>
